<svg width="98" height="24" viewBox="0 0 98 24" fill="none" xmlns="http://www.w3.org/2000/svg">
<path d="M34.6167 2.87061H30.5742V21.7031H34.3763C36 21.7031 37.2454 21.2851 38.111 20.4475C38.9766 19.6099 39.4093 18.31 39.4093 16.5461V7.73787C39.4093 6.18617 39.0038 4.98756 38.1911 4.14046C37.3785 3.29495 36.1875 2.87061 34.6167 2.87061ZM36.678 16.8105C36.678 17.6212 36.5177 18.2166 36.1955 18.5966C35.875 18.9766 35.33 19.165 34.5622 19.165H33.3039V5.41032H34.5622C35.3652 5.41032 35.9182 5.61299 36.2228 6.01833C36.5257 6.42368 36.678 6.99685 36.678 7.73787V16.8105Z" fill="white"/>
<path d="M44.7566 2.87061H41.9666V21.7031H44.7566V2.87061Z" fill="white"/>
<path d="M54.8321 3.89586C54.3893 3.52484 53.8989 3.24262 53.3608 3.0476C52.8212 2.85416 52.2783 2.75586 51.7308 2.75586C51.1832 2.75586 50.6388 2.85258 50.1007 3.0476C49.5611 3.24262 49.0802 3.52484 48.6564 3.89586C48.2136 4.28431 47.8612 4.76949 47.5961 5.35296C47.3311 5.93644 47.1978 6.60712 47.1978 7.36659V17.3253C47.1978 18.1197 47.3311 18.7999 47.5961 19.3643C47.8612 19.9304 48.2151 20.3981 48.6564 20.7675C49.0802 21.156 49.5627 21.4477 50.1007 21.6412C50.6404 21.8346 51.1832 21.9329 51.7308 21.9329C52.2783 21.9329 52.8228 21.8362 53.3608 21.6412C53.9005 21.4477 54.3909 21.156 54.8321 20.7675C55.2559 20.3965 55.6019 19.9288 55.867 19.3643C56.132 18.7999 56.2654 18.1197 56.2654 17.3253V11.3923H51.4133V13.7753H53.5608V17.3237C53.5608 17.977 53.3799 18.459 53.0164 18.7666C52.6545 19.0758 52.226 19.2296 51.7308 19.2296C51.2356 19.2296 50.807 19.0758 50.4451 18.7666C50.0833 18.4574 49.9023 17.977 49.9023 17.3237V7.36659C49.9023 6.71335 50.0833 6.23294 50.4451 5.92376C50.807 5.61458 51.2356 5.46078 51.7308 5.46078C52.226 5.46078 52.6545 5.61616 53.0164 5.92376C53.3783 6.23294 53.5608 6.71494 53.5608 7.36659V8.3195H56.2654V7.36659C56.2654 6.60712 56.132 5.93644 55.867 5.35296C55.6019 4.76949 55.2559 4.2859 54.8321 3.89586Z" fill="white"/>
<path d="M61.6135 2.87061H58.8235V21.7031H61.6135V2.87061Z" fill="white"/>
<path d="M64.2874 21.7031H66.979V13.6619H71.6232V11.1224H66.979V5.41011H72.3087V2.87061H64.2874V21.7031Z" fill="white"/>
<path d="M76.9585 2.87061H74.1685V21.7031H76.9585V2.87061Z" fill="white"/>
<path d="M85.6491 3.12694C85.0839 2.87955 84.4607 2.75586 83.7796 2.75586C82.9729 2.75586 82.2773 2.89224 81.6944 3.16658C81.1115 3.44092 80.6317 3.80724 80.2549 4.26554C79.8604 4.72542 79.5642 5.27252 79.3677 5.90842C79.1697 6.54433 79.0714 7.21512 79.0714 7.92238C79.0714 9.10539 79.2727 10.0902 79.6769 10.8767C80.081 11.6633 80.8732 12.2944 82.0567 12.7702L84.0195 13.5646C84.3593 13.7058 84.633 13.839 84.8407 13.9611C85.0468 14.0848 85.2127 14.2434 85.3383 14.4384C85.4462 14.6335 85.517 14.8888 85.5541 15.2059C85.5895 15.5231 85.6072 15.9307 85.6072 16.4238C85.6072 16.8472 85.5943 17.2326 85.5669 17.5767C85.5396 17.9208 85.4542 18.2174 85.3109 18.4648C85.1676 18.7121 84.9647 18.9024 84.7055 19.0341C84.4446 19.1657 84.0823 19.2323 83.6154 19.2323C82.9166 19.2323 82.419 19.0341 82.1227 18.636C81.8265 18.238 81.6783 17.7924 81.6783 17.2976V16.4492H78.9346V17.4562C78.9346 18.0921 79.0553 18.6788 79.2969 19.218C79.5384 19.7572 79.8653 20.2297 80.2791 20.6357C80.6913 21.0417 81.184 21.3604 81.7588 21.5888C82.3321 21.8187 82.952 21.9329 83.6154 21.9329C84.4946 21.9329 85.2385 21.7918 85.8487 21.5095C86.459 21.2272 86.9517 20.8387 87.3285 20.3439C87.6876 19.8666 87.9468 19.2894 88.1078 18.6091C88.2688 17.9288 88.3493 17.1914 88.3493 16.3969C88.3493 15.7086 88.3139 15.0949 88.2415 14.5558C88.169 14.0166 88.0354 13.5361 87.8373 13.1127C87.6215 12.7067 87.3269 12.3483 86.9501 12.0391C86.5733 11.7299 86.0806 11.4603 85.4703 11.2304L83.3723 10.4089C83.0132 10.2678 82.7314 10.1266 82.5253 9.9855C82.3192 9.84437 82.163 9.67627 82.0551 9.48281C81.9472 9.28934 81.8796 9.06733 81.8538 8.81994C81.8265 8.57256 81.8136 8.26333 81.8136 7.89225C81.8136 7.57509 81.841 7.26904 81.8941 6.97883C81.9472 6.68705 82.0471 6.42698 82.1904 6.19704C82.3337 5.98454 82.5221 5.80852 82.7556 5.66738C82.989 5.52625 83.2934 5.45488 83.6701 5.45488C84.369 5.45488 84.8665 5.68007 85.1628 6.13043C85.4591 6.5808 85.6072 7.11521 85.6072 7.73367V8.34262H88.351V7.01848C88.351 5.92428 87.9387 4.95219 87.1143 4.10379C86.7021 3.70099 86.2142 3.37432 85.6491 3.12694Z" fill="white"/>
<path d="M88.9326 2.87061V5.41011H92.0981V21.7031H94.8348V5.41011H98.0002V2.87061H88.9326Z" fill="white"/>
<path d="M0 24H12.652H14.785H27.4354V0L0 0.017357V24ZM15.2512 15.6576L17.8219 16.6596C17.8219 17.4627 17.9789 18.0544 18.296 18.4347C18.6132 18.8103 19.1492 18.9996 19.9089 18.9996H21.1506V5.32071H19.9089C19.1144 5.32071 18.5704 5.52426 18.2707 5.92505C17.9709 6.32899 17.8219 6.89862 17.8219 7.6355L15.2512 8.64379V7.70493C15.2512 6.20434 15.6508 5.03511 16.4469 4.19566C17.243 3.35937 18.3991 2.9428 19.9057 2.9428H23.8291V21.3728H20.1388C18.5609 21.3728 17.3525 20.9609 16.512 20.1436C15.6715 19.3231 15.2512 18.0497 15.2512 16.3235V15.6576ZM3.60466 2.957H7.52966C9.03781 2.957 10.1891 3.37673 10.9852 4.21144C11.7813 5.04931 12.181 6.21854 12.181 7.71755V9.84773L9.60872 10.856V7.64813C9.60872 6.91124 9.46123 6.34319 9.1615 5.93767C8.86178 5.53688 8.31624 5.33333 7.52331 5.33333H6.28159V19.0028H7.52331C8.28135 19.0028 8.81896 18.8134 9.13613 18.4379C9.4533 18.0576 9.60872 17.4675 9.60872 16.6643V13.458L12.181 14.4615V16.3314C12.181 18.0544 11.7623 19.3278 10.9202 20.1483C10.0797 20.9641 8.87129 21.3775 7.29336 21.3775H3.60466V2.957Z" fill="white"/>
</svg>
