<svg viewBox="0 0 130 32" width="130" height="32" fill="none" xmlns="http://www.w3.org/2000/svg"><path d="M45.92 3.828h-5.362v25.11H45.6c2.154 0 3.806-.557 4.954-1.674 1.149-1.117 1.723-2.85 1.723-5.202V10.317c0-2.068-.538-3.667-1.616-4.796-1.078-1.127-2.658-1.693-4.742-1.693Zm2.734 18.586c0 1.081-.212 1.875-.64 2.382-.425.506-1.148.758-2.166.758h-1.67V7.214h1.67c1.065 0 1.799.27 2.203.81.401.541.603 1.305.603 2.293v12.097ZM59.371 3.828H55.67v25.11h3.701V3.828ZM72.737 5.195a6.417 6.417 0 0 0-1.952-1.131 6.34 6.34 0 0 0-2.162-.39 6.28 6.28 0 0 0-2.163.39 5.94 5.94 0 0 0-1.916 1.13c-.587.519-1.054 1.166-1.406 1.943-.352.778-.529 1.673-.529 2.685v13.279c0 1.059.177 1.966.529 2.718a5.366 5.366 0 0 0 1.406 1.871 5.624 5.624 0 0 0 1.916 1.165 6.34 6.34 0 0 0 2.163.39c.726 0 1.448-.13 2.162-.39a5.988 5.988 0 0 0 1.952-1.165c.562-.494 1.02-1.118 1.372-1.87.352-.753.529-1.66.529-2.72v-7.91H68.2v3.177h2.85V23.1c0 .87-.24 1.513-.723 1.923a2.532 2.532 0 0 1-1.705.618 2.532 2.532 0 0 1-1.706-.618c-.48-.412-.72-1.052-.72-1.923V9.822c0-.87.24-1.511.72-1.923a2.533 2.533 0 0 1 1.706-.618c.656 0 1.225.207 1.705.618.48.412.722 1.054.722 1.923v1.27h3.588v-1.27c0-1.012-.177-1.907-.529-2.685a5.935 5.935 0 0 0-1.372-1.942ZM81.732 3.828h-3.7v25.11h3.7V3.828ZM85.28 28.938h3.57V18.216h6.16V14.83h-6.16V7.214h7.07V3.828H85.28v25.11ZM102.088 3.828h-3.701v25.11h3.701V3.828ZM113.616 4.17c-.75-.33-1.576-.495-2.48-.495-1.07 0-1.993.182-2.766.547a5.42 5.42 0 0 0-1.91 1.466 6.072 6.072 0 0 0-1.176 2.19 9.01 9.01 0 0 0-.393 2.685c0 1.578.267 2.89.803 3.94.536 1.048 1.587 1.89 3.157 2.524l2.603 1.06c.451.188.814.365 1.09.528a2 2 0 0 1 .66.636c.143.26.237.6.286 1.024.047.423.07.966.07 1.624 0 .564-.017 1.078-.053 1.537-.036.459-.149.854-.34 1.184-.19.33-.459.583-.803.759-.346.175-.826.264-1.446.264-.927 0-1.587-.264-1.98-.795a2.923 2.923 0 0 1-.589-1.784v-1.131h-3.64v1.342c0 .848.16 1.63.481 2.35.32.718.754 1.348 1.303 1.89.546.54 1.2.966 1.962 1.27a6.532 6.532 0 0 0 2.463.46c1.166 0 2.153-.19 2.963-.566.809-.376 1.463-.894 1.963-1.554.476-.636.82-1.406 1.034-2.313.213-.907.32-1.89.32-2.95 0-.917-.047-1.735-.143-2.454a6.632 6.632 0 0 0-.536-1.924 4.676 4.676 0 0 0-1.177-1.432c-.5-.412-1.154-.771-1.963-1.078l-2.783-1.095c-.477-.188-.85-.377-1.124-.565a1.994 1.994 0 0 1-.624-.67 2.309 2.309 0 0 1-.267-.884c-.036-.33-.053-.742-.053-1.237 0-.423.036-.83.107-1.218.07-.389.203-.735.393-1.042.19-.283.44-.518.75-.706.309-.188.713-.284 1.213-.284.927 0 1.587.3 1.98.901.393.6.589 1.313.589 2.138v.812h3.64V9.358c0-1.459-.547-2.755-1.64-3.886a6.453 6.453 0 0 0-1.944-1.303ZM117.972 3.828v3.386h4.199v21.724h3.63V7.214H130V3.828h-12.028ZM0 32h36.393V0L0 .023V32Zm20.231-11.123 3.41 1.336c0 1.07.209 1.86.63 2.367.42.5 1.131.753 2.139.753h1.647V7.094H26.41c-1.054 0-1.776.272-2.173.806-.398.539-.596 1.298-.596 2.28l-3.41 1.345v-1.252c0-2 .53-3.56 1.586-4.679 1.056-1.115 2.59-1.67 4.588-1.67h5.205v24.573h-4.895c-2.093 0-3.696-.55-4.811-1.639-1.115-1.094-1.673-2.792-1.673-5.093v-.888ZM4.781 3.943h5.207c2 0 3.528.56 4.584 1.672 1.056 1.117 1.586 2.676 1.586 4.675v2.84l-3.412 1.345v-4.277c0-.983-.195-1.74-.593-2.281-.398-.534-1.121-.806-2.173-.806H8.333v18.226H9.98c1.005 0 1.719-.253 2.14-.753.42-.507.626-1.294.626-2.365v-4.275l3.412 1.338v2.493c0 2.298-.555 3.995-1.672 5.09-1.115 1.087-2.718 1.638-4.811 1.638H4.782V3.943Z" fill="#fff"></path></svg>